<svg xmlns="http://www.w3.org/2000/svg" xmlns:v="https://svgstorm.com"
viewBox = "0 0 583 573"
width="583"
height="573">
<g fill="None" fill-opacity="0.0" stroke="#FAF7F5" stroke-opacity="1.00" stroke-width="0.3"><path d="
M 0.00 573.00 
L 583.00 573.00
L 583.00 0.00
L 0.00 0.00
L 0.00 573.00
M 424.00 91.00 
C 417.88 97.63 409.50 102.49 404.00 110.00
C 392.31 102.94 382.84 96.94 369.78 92.22 C 356.72 87.51 343.11 83.16 328.78 81.22 C 314.45 79.29 293.35 79.49 279.00 81.00 C 264.65 82.51 250.67 87.30 237.78 91.78 C 224.89 96.25 214.40 102.31 203.30 109.30 C 192.21 116.30 184.18 123.44 174.75 132.75 C 165.32 142.07 158.19 150.15 151.23 161.23 C 144.27 172.31 137.76 182.32 133.22 195.22 C 128.69 208.13 123.98 221.90 122.22 236.22 C 120.46 250.55 120.20 272.67 122.00 287.00 C 123.80 301.33 128.44 315.18 132.93 328.07 C 137.42 340.97 143.87 351.12 150.77 362.23 C 157.67 373.34 164.91 381.38 174.25 390.75 C 183.58 400.12 191.71 407.27 202.75 414.25 C 213.78 421.24 224.24 427.51 237.07 431.93 C 249.91 436.34 263.81 441.56 278.07 442.93 C 292.34 444.29 313.74 445.40 328.00 443.00 C 342.26 440.60 356.13 437.83 369.07 432.07 C 382.02 426.32 391.99 424.07 403.25 414.25 C 414.50 404.42 423.43 416.17 434.00 424.00
C 353.61 493.80 227.24 483.50 153.25 407.75 C 79.26 332.01 74.46 206.36 143.92 125.92 C 213.38 45.48 338.32 28.46 424.00 91.00
M 399.00 115.00 
C 393.38 121.90 387.43 128.43 383.00 136.00
C 322.67 97.94 239.14 111.58 192.75 166.75 C 146.36 221.93 148.65 306.70 197.25 359.75 C 245.85 412.79 330.72 421.96 389.00 381.00
C 394.07 388.41 401.76 394.35 406.00 402.00
C 337.18 451.63 236.70 441.40 178.25 378.75 C 119.80 316.10 117.27 215.64 171.92 149.92 C 226.56 84.19 327.74 67.15 399.00 115.00
M 286.00 226.00 
C 268.78 219.07 245.00 227.03 226.00 224.00
C 226.00 231.67 226.00 239.33 226.00 247.00
C 232.69 245.49 238.82 241.84 246.00 242.00
C 251.17 241.16 256.89 241.17 262.00 242.00
C 274.75 242.69 287.20 250.53 291.92 263.08 C 296.65 275.62 293.81 291.59 282.75 300.75 C 271.70 309.92 256.87 311.10 242.78 310.22 C 228.69 309.34 218.15 298.77 205.00 299.00
C 207.14 292.74 212.11 286.68 217.00 282.00
C 226.78 301.41 268.73 309.31 278.93 281.93 C 289.12 254.54 236.37 239.83 227.00 266.00
C 219.05 264.41 214.58 255.46 208.00 251.00
C 214.79 248.11 211.59 237.74 212.00 231.00 C 212.41 224.26 213.56 214.31 208.00 211.00
C 220.97 210.52 235.15 211.64 248.00 211.00 C 260.85 210.36 274.87 213.13 286.00 209.00
C 286.19 208.92 287.02 205.37 289.00 207.00
C 287.76 211.95 291.92 228.94 286.00 226.00
M 325.00 306.00 
C 326.33 306.99 328.57 307.05 329.00 309.00
C 321.16 311.26 312.25 309.38 304.00 310.00
C 303.29 307.79 304.90 306.54 307.00 307.00
C 321.95 292.53 332.88 273.05 347.00 258.00
C 335.58 242.56 324.86 224.17 310.00 212.00
C 317.76 209.69 327.49 211.65 336.00 211.00
C 328.02 215.56 338.34 222.04 342.25 227.75 C 346.16 233.47 350.99 240.19 355.00 246.00
C 361.03 242.54 365.49 234.36 369.92 228.92 C 374.34 223.47 384.33 216.02 378.00 211.00
C 385.86 212.27 397.56 208.41 403.00 213.00
C 395.05 215.60 386.30 227.50 381.75 234.75 C 377.21 242.00 361.89 251.14 365.76 259.25 C 369.62 267.35 379.29 276.48 384.75 284.25 C 390.21 292.01 396.85 304.24 406.00 307.00
C 400.24 311.56 388.18 307.74 380.00 309.00
C 386.94 302.68 374.53 295.43 370.25 288.75 C 365.97 282.08 359.26 274.88 355.00 268.00
C 344.46 279.99 333.82 292.89 325.00 306.00
M 414.00 483.00 
C 415.47 485.45 412.89 490.33 414.00 493.00
C 406.21 488.64 395.84 492.12 387.00 491.00
C 387.56 493.52 385.81 497.30 388.00 499.00
C 399.53 491.58 422.44 501.72 416.02 517.02 C 409.60 532.33 389.07 527.18 378.00 522.00
C 379.69 519.29 381.72 516.92 383.00 514.00
C 386.41 521.67 402.88 527.09 408.75 516.75 C 414.62 506.42 393.09 496.59 389.00 508.00
C 384.41 508.46 382.70 502.63 379.00 501.00
C 381.24 496.87 382.17 490.20 380.00 486.00
C 380.32 483.30 392.08 483.09 396.00 484.00 C 399.92 484.91 413.54 482.24 414.00 483.00
M 444.00 497.00 
C 448.16 499.72 451.84 490.64 455.00 487.00
C 455.26 486.53 453.16 484.79 454.00 484.00
C 456.94 484.79 466.81 482.09 465.00 486.00
C 463.31 491.94 447.50 498.94 450.78 506.22 C 454.06 513.51 462.96 519.94 467.00 527.00
C 463.33 527.00 459.67 527.00 456.00 527.00
C 456.63 521.03 448.59 515.85 446.00 510.00
C 441.60 514.65 434.83 521.07 435.00 527.00
C 431.33 527.00 427.67 527.00 424.00 527.00
C 428.36 520.40 436.83 513.94 439.77 506.77 C 442.71 499.60 430.31 491.32 426.00 486.00
C 424.85 481.96 433.59 484.91 437.00 484.00
C 436.72 488.83 441.52 492.61 444.00 497.00
M 194.00 492.00 
C 199.70 492.87 200.26 504.30 202.93 509.07 C 205.59 513.85 208.21 522.58 212.00 526.00
C 207.33 526.00 202.67 526.00 198.00 526.00
C 199.23 521.74 202.21 519.77 199.00 515.00
C 189.60 512.38 185.22 520.20 190.00 526.00
C 186.33 526.00 182.67 526.00 179.00 526.00
C 178.54 523.72 179.11 521.24 182.00 522.00
C 184.28 518.08 185.31 509.42 187.78 505.78 C 190.25 502.13 190.09 491.40 194.00 492.00
M 318.00 492.00 
C 323.70 492.87 324.26 504.30 326.93 509.07 C 329.59 513.85 332.21 522.58 336.00 526.00
C 331.33 526.00 326.67 526.00 322.00 526.00
C 323.23 521.74 326.21 519.77 323.00 515.00
C 313.60 512.38 309.22 520.20 314.00 526.00
C 310.33 526.00 306.67 526.00 303.00 526.00
C 302.54 523.72 303.11 521.24 306.00 522.00
C 308.28 518.08 309.31 509.42 311.78 505.78 C 314.25 502.13 314.09 491.40 318.00 492.00
M 172.00 493.00 
C 174.32 494.58 175.19 501.83 172.00 503.00
C 167.62 504.61 167.67 499.95 168.00 497.00
C 165.00 497.00 162.00 497.00 159.00 497.00
C 152.81 499.52 152.87 513.30 155.00 518.00
C 157.39 521.70 163.31 524.98 168.07 521.07 C 172.84 517.17 173.79 523.63 168.75 525.75 C 163.71 527.87 157.56 527.43 153.00 525.00
C 141.48 518.85 142.51 497.39 155.00 493.00
C 158.80 491.67 168.44 490.58 172.00 493.00
M 261.00 497.00 
C 258.66 504.12 261.68 514.48 261.00 522.00
C 263.11 522.68 263.24 523.49 263.00 526.00
C 258.37 526.48 253.20 524.92 249.00 527.00
C 248.63 524.88 249.12 521.61 252.00 522.00
C 253.92 516.16 252.87 503.13 252.00 497.00
C 251.64 495.75 248.81 495.25 250.00 493.00
C 254.33 493.00 258.67 493.00 263.00 493.00
C 266.36 494.23 261.72 495.58 261.00 497.00
M 270.00 493.00 
C 278.01 489.75 289.66 495.44 298.00 493.00
C 298.00 496.33 298.00 499.67 298.00 503.00
C 293.95 504.33 293.11 500.02 293.00 497.00
C 291.33 497.00 289.67 497.00 288.00 497.00
C 289.77 504.78 285.64 514.40 288.00 522.00
C 288.29 522.59 293.03 523.28 291.00 526.00
C 286.33 526.00 281.67 526.00 277.00 526.00
C 276.24 523.65 278.25 522.73 280.00 522.00
C 282.31 514.36 278.27 504.81 280.00 497.00
C 278.81 496.25 276.31 497.57 275.00 497.00
C 275.35 499.83 273.16 505.47 270.00 502.00
C 267.74 499.74 269.11 493.36 270.00 493.00
M 353.00 497.00 
C 350.75 503.84 353.65 513.78 353.00 521.00
C 355.67 521.00 358.33 521.00 361.00 521.00
C 361.64 518.84 361.59 515.12 365.00 516.00
C 366.89 517.01 366.58 524.90 365.00 526.00
C 363.21 527.25 356.43 526.13 354.00 526.00 C 351.58 525.87 344.07 527.29 342.00 526.00
C 339.91 524.70 345.44 518.31 344.00 514.00 C 342.56 509.69 344.67 501.71 344.00 497.00
C 343.64 495.76 340.81 495.25 342.00 493.00
C 346.33 493.00 350.67 493.00 355.00 493.00
C 358.36 494.23 353.72 495.58 353.00 497.00
M 242.00 500.00 
C 243.73 504.80 241.87 509.23 237.00 512.00
C 234.15 513.62 230.42 514.21 227.00 514.00
C 224.44 521.02 230.93 520.84 231.00 526.00
C 226.04 526.51 220.53 524.89 216.00 527.00
C 215.63 524.88 216.12 521.61 219.00 522.00
C 220.92 516.16 219.87 503.13 219.00 497.00
C 218.64 495.75 215.81 495.25 217.00 493.00
C 225.55 493.90 238.40 489.44 242.00 500.00 Z"/>
</g>
<g fill="None" fill-opacity="0.0" stroke="#303A46" stroke-opacity="1.00" stroke-width="0.3"><path d="
M 424.00 91.00 
C 338.32 28.46 213.38 45.48 143.92 125.92 C 74.46 206.36 79.26 332.01 153.25 407.75 C 227.24 483.50 353.61 493.80 434.00 424.00
C 423.43 416.17 414.50 404.42 403.25 414.25 C 391.99 424.07 382.02 426.32 369.07 432.07 C 356.13 437.83 342.26 440.60 328.00 443.00 C 313.74 445.40 292.34 444.29 278.07 442.93 C 263.81 441.56 249.91 436.34 237.07 431.93 C 224.24 427.51 213.78 421.24 202.75 414.25 C 191.71 407.27 183.58 400.12 174.25 390.75 C 164.91 381.38 157.67 373.34 150.77 362.23 C 143.87 351.12 137.42 340.97 132.93 328.07 C 128.44 315.18 123.80 301.33 122.00 287.00 C 120.20 272.67 120.46 250.55 122.22 236.22 C 123.98 221.90 128.69 208.13 133.22 195.22 C 137.76 182.32 144.27 172.31 151.23 161.23 C 158.19 150.15 165.32 142.07 174.75 132.75 C 184.18 123.44 192.21 116.30 203.30 109.30 C 214.40 102.31 224.89 96.25 237.78 91.78 C 250.67 87.30 264.65 82.51 279.00 81.00 C 293.35 79.49 314.45 79.29 328.78 81.22 C 343.11 83.16 356.72 87.51 369.78 92.22 C 382.84 96.94 392.31 102.94 404.00 110.00
C 409.50 102.49 417.88 97.63 424.00 91.00 Z"/>
</g>
<g fill="None" fill-opacity="0.0" stroke="#AA8D74" stroke-opacity="1.00" stroke-width="0.3"><path d="
M 399.00 115.00 
C 327.74 67.15 226.56 84.19 171.92 149.92 C 117.27 215.64 119.80 316.10 178.25 378.75 C 236.70 441.40 337.18 451.63 406.00 402.00
C 401.76 394.35 394.07 388.41 389.00 381.00
C 330.72 421.96 245.85 412.79 197.25 359.75 C 148.65 306.70 146.36 221.93 192.75 166.75 C 239.14 111.58 322.67 97.94 383.00 136.00
C 387.43 128.43 393.38 121.90 399.00 115.00 Z"/>
</g>
<g fill="None" fill-opacity="0.0" stroke="#BCB4AE" stroke-opacity="1.00" stroke-width="0.3"><path d="
M 286.00 209.00 
C 289.28 208.94 289.36 226.07 286.00 226.00
C 291.92 228.94 287.76 211.95 289.00 207.00
C 287.02 205.37 286.19 208.92 286.00 209.00 Z"/>
</g>
<g fill="None" fill-opacity="0.0" stroke="#AA8F77" stroke-opacity="1.00" stroke-width="0.3"><path d="
M 286.00 209.00 
C 274.87 213.13 260.85 210.36 248.00 211.00 C 235.15 211.64 220.97 210.52 208.00 211.00
C 213.56 214.31 212.41 224.26 212.00 231.00 C 211.59 237.74 214.79 248.11 208.00 251.00
C 214.58 255.46 219.05 264.41 227.00 266.00
C 236.37 239.83 289.12 254.54 278.93 281.93 C 268.73 309.31 226.78 301.41 217.00 282.00
C 212.11 286.68 207.14 292.74 205.00 299.00
C 218.15 298.77 228.69 309.34 242.78 310.22 C 256.87 311.10 271.70 309.92 282.75 300.75 C 293.81 291.59 296.65 275.62 291.92 263.08 C 287.20 250.53 274.75 242.69 262.00 242.00
C 256.77 241.72 251.23 241.72 246.00 242.00
C 238.82 241.84 232.69 245.49 226.00 247.00
C 226.00 239.33 226.00 231.67 226.00 224.00
C 245.00 227.03 268.78 219.07 286.00 226.00
C 289.36 226.07 289.28 208.94 286.00 209.00 Z"/>
</g>
<g fill="None" fill-opacity="0.0" stroke="#AA8E76" stroke-opacity="1.00" stroke-width="0.3"><path d="
M 307.00 307.00 
C 306.42 307.96 305.31 307.79 305.00 309.00
C 312.67 309.00 320.33 309.00 328.00 309.00
C 327.44 307.73 325.15 307.75 325.00 306.00
C 333.82 292.89 344.46 279.99 355.00 268.00
C 359.26 274.88 365.97 282.08 370.25 288.75 C 374.53 295.43 386.94 302.68 380.00 309.00
C 388.18 307.74 400.24 311.56 406.00 307.00
C 396.85 304.24 390.21 292.01 384.75 284.25 C 379.29 276.48 369.62 267.35 365.76 259.25 C 361.89 251.14 377.21 242.00 381.75 234.75 C 386.30 227.50 395.05 215.60 403.00 213.00
C 397.56 208.41 385.86 212.27 378.00 211.00
C 384.33 216.02 374.34 223.47 369.92 228.92 C 365.49 234.36 361.03 242.54 355.00 246.00
C 350.99 240.19 346.16 233.47 342.25 227.75 C 338.34 222.04 328.02 215.56 336.00 211.00
C 327.49 211.65 317.76 209.69 310.00 212.00
C 324.86 224.17 335.58 242.56 347.00 258.00
C 332.88 273.05 321.95 292.53 307.00 307.00 Z"/>
</g>
<g fill="None" fill-opacity="0.0" stroke="#C3BBB3" stroke-opacity="1.00" stroke-width="0.3"><path d="
M 246.00 242.00 
C 251.23 241.72 256.77 241.72 262.00 242.00
C 256.89 241.17 251.17 241.16 246.00 242.00 Z"/>
</g>
<g fill="None" fill-opacity="0.0" stroke="#C4BDB8" stroke-opacity="1.00" stroke-width="0.3"><path d="
M 307.00 307.00 
C 304.90 306.54 303.29 307.79 304.00 310.00
C 312.25 309.38 321.16 311.26 329.00 309.00
C 328.57 307.05 326.33 306.99 325.00 306.00
C 325.15 307.75 327.44 307.73 328.00 309.00
C 320.33 309.00 312.67 309.00 305.00 309.00
C 305.31 307.79 306.42 307.96 307.00 307.00 Z"/>
</g>
<g fill="None" fill-opacity="0.0" stroke="#C1BAB4" stroke-opacity="1.00" stroke-width="0.3"><path d="
M 380.00 486.00 
C 390.25 482.49 404.09 488.13 414.00 483.00
C 413.54 482.24 399.92 484.91 396.00 484.00 C 392.08 483.09 380.32 483.30 380.00 486.00 Z"/>
</g>
<g fill="None" fill-opacity="0.0" stroke="#AC917B" stroke-opacity="1.00" stroke-width="0.3"><path d="
M 380.00 486.00 
C 382.17 490.20 381.24 496.87 379.00 501.00
C 382.70 502.63 384.41 508.46 389.00 508.00
C 393.09 496.59 414.62 506.42 408.75 516.75 C 402.88 527.09 386.41 521.67 383.00 514.00
C 381.72 516.92 379.69 519.29 378.00 522.00
C 389.07 527.18 409.60 532.33 416.02 517.02 C 422.44 501.72 399.53 491.58 388.00 499.00
C 385.81 497.30 387.56 493.52 387.00 491.00
C 395.84 492.12 406.21 488.64 414.00 493.00
C 412.89 490.33 415.47 485.45 414.00 483.00
C 404.09 488.13 390.25 482.49 380.00 486.00 Z"/>
</g>
<g fill="None" fill-opacity="0.0" stroke="#C5BDB7" stroke-opacity="1.00" stroke-width="0.3"><path d="
M 426.00 486.00 
C 428.76 483.84 433.49 485.55 437.00 485.00
C 435.30 489.36 441.12 493.94 444.00 497.00
C 441.52 492.61 436.72 488.83 437.00 484.00
C 433.59 484.91 424.85 481.96 426.00 486.00 Z"/>
</g>
<g fill="None" fill-opacity="0.0" stroke="#C4BDB6" stroke-opacity="1.00" stroke-width="0.3"><path d="
M 455.00 487.00 
C 456.54 485.22 461.55 483.38 465.00 486.00
C 466.81 482.09 456.94 484.79 454.00 484.00
C 453.16 484.79 455.26 486.53 455.00 487.00 Z"/>
</g>
<g fill="None" fill-opacity="0.0" stroke="#AA8F79" stroke-opacity="1.00" stroke-width="0.3"><path d="
M 426.00 486.00 
C 430.31 491.32 442.71 499.60 439.77 506.77 C 436.83 513.94 428.36 520.40 424.00 527.00
C 427.67 527.00 431.33 527.00 435.00 527.00
C 434.83 521.07 441.60 514.65 446.00 510.00
C 448.59 515.85 456.63 521.03 456.00 527.00
C 459.67 527.00 463.33 527.00 467.00 527.00
C 462.96 519.94 454.06 513.51 450.78 506.22 C 447.50 498.94 463.31 491.94 465.00 486.00
C 461.55 483.38 456.54 485.22 455.00 487.00
C 451.84 490.64 448.16 499.72 444.00 497.00
C 441.12 493.94 435.30 489.36 437.00 485.00
C 433.49 485.55 428.76 483.84 426.00 486.00 Z"/>
</g>
<g fill="None" fill-opacity="0.0" stroke="#EDCFA4" stroke-opacity="1.00" stroke-width="0.3"><path d="
M 182.00 522.00 
C 184.63 518.56 185.94 510.32 187.98 506.98 C 190.01 503.63 190.85 492.95 194.00 492.00
C 190.09 491.40 190.25 502.13 187.78 505.78 C 185.31 509.42 184.28 518.08 182.00 522.00 Z"/>
</g>
<g fill="None" fill-opacity="0.0" stroke="#EDCFA4" stroke-opacity="1.00" stroke-width="0.3"><path d="
M 306.00 522.00 
C 308.63 518.56 309.94 510.32 311.98 506.98 C 314.01 503.63 314.85 492.95 318.00 492.00
C 314.09 491.40 314.25 502.13 311.78 505.78 C 309.31 509.42 308.28 518.08 306.00 522.00 Z"/>
</g>
<g fill="None" fill-opacity="0.0" stroke="#AC8F77" stroke-opacity="1.00" stroke-width="0.3"><path d="
M 155.00 493.00 
C 144.20 497.94 142.76 518.53 153.00 525.00
C 157.56 527.43 163.71 527.87 168.75 525.75 C 173.79 523.63 172.84 517.17 168.07 521.07 C 163.31 524.98 157.39 521.70 155.00 518.00
C 151.89 513.18 151.24 499.32 159.00 497.00
C 162.00 497.00 165.00 497.00 168.00 497.00
C 167.67 499.95 167.62 504.61 172.00 503.00
C 173.48 502.06 173.36 494.29 172.00 493.00
C 168.44 490.58 158.80 491.67 155.00 493.00 Z"/>
</g>
<g fill="None" fill-opacity="0.0" stroke="#AB8E75" stroke-opacity="1.00" stroke-width="0.3"><path d="
M 182.00 522.00 
C 179.11 521.24 178.54 523.72 179.00 526.00
C 182.67 526.00 186.33 526.00 190.00 526.00
C 185.22 520.20 189.60 512.38 199.00 515.00
C 202.21 519.77 199.23 521.74 198.00 526.00
C 202.67 526.00 207.33 526.00 212.00 526.00
C 208.21 522.58 205.59 513.85 202.93 509.07 C 200.26 504.30 199.70 492.87 194.00 492.00
C 190.85 492.95 190.01 503.63 187.98 506.98 C 185.94 510.32 184.63 518.56 182.00 522.00
M 195.00 504.00 
C 194.37 506.72 197.07 508.41 197.00 511.00
C 190.08 513.90 190.19 505.38 195.00 504.00 Z"/>
</g>
<g fill="None" fill-opacity="0.0" stroke="#AD979D" stroke-opacity="1.00" stroke-width="0.3"><path d="
M 263.00 493.00 
C 264.03 496.14 260.79 495.86 259.00 497.00
C 259.66 505.17 257.67 514.66 260.00 522.00
C 259.40 515.37 258.22 502.49 261.00 497.00
C 261.72 495.58 266.36 494.23 263.00 493.00 Z"/>
</g>
<g fill="None" fill-opacity="0.0" stroke="#F9EBC6" stroke-opacity="1.00" stroke-width="0.3"><path d="
M 270.00 502.00 
C 268.69 499.93 270.77 495.37 270.00 493.00
C 269.11 493.36 267.74 499.74 270.00 502.00 Z"/>
</g>
<g fill="None" fill-opacity="0.0" stroke="#AB8E75" stroke-opacity="1.00" stroke-width="0.3"><path d="
M 306.00 522.00 
C 303.11 521.24 302.54 523.72 303.00 526.00
C 306.67 526.00 310.33 526.00 314.00 526.00
C 309.22 520.20 313.60 512.38 323.00 515.00
C 326.21 519.77 323.23 521.74 322.00 526.00
C 326.67 526.00 331.33 526.00 336.00 526.00
C 332.21 522.58 329.59 513.85 326.93 509.07 C 324.26 504.30 323.70 492.87 318.00 492.00
C 314.85 492.95 314.01 503.63 311.98 506.98 C 309.94 510.32 308.63 518.56 306.00 522.00
M 321.00 511.00 
C 314.40 512.71 315.04 508.41 317.00 504.00
C 319.71 504.31 320.03 508.71 321.00 511.00 Z"/>
</g>
<g fill="None" fill-opacity="0.0" stroke="#AD989E" stroke-opacity="1.00" stroke-width="0.3"><path d="
M 355.00 493.00 
C 356.03 496.14 352.79 495.86 351.00 497.00
C 351.66 504.83 349.67 513.99 352.00 521.00
C 351.42 514.59 350.32 502.30 353.00 497.00
C 353.72 495.58 358.36 494.23 355.00 493.00 Z"/>
</g>
<g fill="None" fill-opacity="0.0" stroke="#EED4AB" stroke-opacity="1.00" stroke-width="0.3"><path d="
M 153.00 525.00 
C 142.76 518.53 144.20 497.94 155.00 493.00
C 142.51 497.39 141.48 518.85 153.00 525.00 Z"/>
</g>
<g fill="None" fill-opacity="0.0" stroke="#B7B8CD" stroke-opacity="1.00" stroke-width="0.3"><path d="
M 172.00 503.00 
C 175.19 501.83 174.32 494.58 172.00 493.00
C 173.36 494.29 173.48 502.06 172.00 503.00 Z"/>
</g>
<g fill="None" fill-opacity="0.0" stroke="#AE9178" stroke-opacity="1.00" stroke-width="0.3"><path d="
M 219.00 497.00 
C 220.66 502.76 221.78 516.50 219.00 522.00
C 216.12 521.61 215.63 524.88 216.00 527.00
C 220.53 524.89 226.04 526.51 231.00 526.00
C 230.93 520.84 224.44 521.02 227.00 514.00
C 230.42 514.21 234.15 513.62 237.00 512.00
C 240.43 509.69 242.71 504.02 242.00 500.00
C 238.40 489.44 225.55 493.90 217.00 493.00
C 215.81 495.25 218.64 495.75 219.00 497.00
M 227.00 509.00 
C 225.16 507.79 225.22 498.17 227.00 497.00
C 236.78 490.56 236.77 515.44 227.00 509.00 Z"/>
</g>
<g fill="None" fill-opacity="0.0" stroke="#AE9075" stroke-opacity="1.00" stroke-width="0.3"><path d="
M 252.00 497.00 
C 253.66 502.76 254.78 516.50 252.00 522.00
C 249.12 521.61 248.63 524.88 249.00 527.00
C 253.20 524.92 258.37 526.48 263.00 526.00
C 263.24 523.49 263.11 522.68 261.00 522.00
C 260.55 521.85 260.00 522.00 260.00 522.00
C 257.67 514.66 259.66 505.17 259.00 497.00
C 260.79 495.86 264.03 496.14 263.00 493.00
C 258.67 493.00 254.33 493.00 250.00 493.00
C 248.81 495.25 251.64 495.75 252.00 497.00 Z"/>
</g>
<g fill="None" fill-opacity="0.0" stroke="#AA8E76" stroke-opacity="1.00" stroke-width="0.3"><path d="
M 270.00 502.00 
C 273.16 505.47 275.35 499.83 275.00 497.00
C 276.31 497.57 278.81 496.25 280.00 497.00
C 282.75 498.74 280.51 505.66 281.00 509.00 C 281.49 512.34 281.33 519.22 280.00 522.00
C 278.25 522.73 276.24 523.65 277.00 526.00
C 281.67 526.00 286.33 526.00 291.00 526.00
C 293.03 523.28 288.29 522.59 288.00 522.00
C 286.70 519.36 286.38 513.22 287.00 510.00 C 287.62 506.78 285.18 498.79 288.00 497.00
C 289.67 497.00 291.33 497.00 293.00 497.00
C 293.11 500.02 293.95 504.33 298.00 503.00
C 298.00 499.67 298.00 496.33 298.00 493.00
C 289.66 495.44 278.01 489.75 270.00 493.00
C 270.77 495.37 268.69 499.93 270.00 502.00 Z"/>
</g>
<g fill="None" fill-opacity="0.0" stroke="#AC8F75" stroke-opacity="1.00" stroke-width="0.3"><path d="
M 344.00 497.00 
C 346.46 505.55 345.98 518.82 342.00 526.00
C 344.07 527.29 351.58 525.87 354.00 526.00 C 356.43 526.13 363.21 527.25 365.00 526.00
C 365.00 522.67 365.00 519.33 365.00 516.00
C 361.59 515.12 361.64 518.84 361.00 521.00
C 358.33 521.00 355.67 521.00 353.00 521.00
C 352.50 521.00 352.00 521.00 352.00 521.00
C 349.67 513.99 351.66 504.83 351.00 497.00
C 352.79 495.86 356.03 496.14 355.00 493.00
C 350.67 493.00 346.33 493.00 342.00 493.00
C 340.81 495.25 343.64 495.76 344.00 497.00 Z"/>
</g>
<g fill="None" fill-opacity="0.0" stroke="#B7B7CC" stroke-opacity="1.00" stroke-width="0.3"><path d="
M 155.00 518.00 
C 152.87 513.30 152.81 499.52 159.00 497.00
C 151.24 499.32 151.89 513.18 155.00 518.00 Z"/>
</g>
<g fill="None" fill-opacity="0.0" stroke="#FAF2D1" stroke-opacity="1.00" stroke-width="0.3"><path d="
M 219.00 522.00 
C 221.78 516.50 220.66 502.76 219.00 497.00
C 219.87 503.13 220.92 516.16 219.00 522.00 Z"/>
</g>
<g fill="None" fill-opacity="0.0" stroke="#A98F94" stroke-opacity="1.00" stroke-width="0.3"><path d="
M 227.00 509.00 
C 227.00 505.00 227.00 501.00 227.00 497.00
C 225.22 498.17 225.16 507.79 227.00 509.00 Z"/>
</g>
<g fill="None" fill-opacity="0.0" stroke="#F4F4F3" stroke-opacity="1.00" stroke-width="0.3"><path d="
M 227.00 509.00 
C 236.77 515.44 236.78 490.56 227.00 497.00
C 227.00 501.00 227.00 505.00 227.00 509.00 Z"/>
</g>
<g fill="None" fill-opacity="0.0" stroke="#FAF2D1" stroke-opacity="1.00" stroke-width="0.3"><path d="
M 252.00 522.00 
C 254.78 516.50 253.66 502.76 252.00 497.00
C 252.87 503.13 253.92 516.16 252.00 522.00 Z"/>
</g>
<g fill="None" fill-opacity="0.0" stroke="#D4E9F3" stroke-opacity="1.00" stroke-width="0.3"><path d="
M 260.00 522.00 
C 260.00 522.00 260.55 521.85 261.00 522.00
C 261.68 514.48 258.66 504.12 261.00 497.00
C 258.22 502.49 259.40 515.37 260.00 522.00 Z"/>
</g>
<g fill="None" fill-opacity="0.0" stroke="#DAAF7B" stroke-opacity="1.00" stroke-width="0.3"><path d="
M 280.00 522.00 
C 281.33 519.22 281.49 512.34 281.00 509.00 C 280.51 505.66 282.75 498.74 280.00 497.00
C 278.27 504.81 282.31 514.36 280.00 522.00 Z"/>
</g>
<g fill="None" fill-opacity="0.0" stroke="#C2CFED" stroke-opacity="1.00" stroke-width="0.3"><path d="
M 288.00 522.00 
C 285.64 514.40 289.77 504.78 288.00 497.00
C 285.18 498.79 287.62 506.78 287.00 510.00 C 286.38 513.22 286.70 519.36 288.00 522.00 Z"/>
</g>
<g fill="None" fill-opacity="0.0" stroke="#F6EAC8" stroke-opacity="1.00" stroke-width="0.3"><path d="
M 342.00 526.00 
C 345.98 518.82 346.46 505.55 344.00 497.00
C 344.67 501.71 342.56 509.69 344.00 514.00 C 345.44 518.31 339.91 524.70 342.00 526.00 Z"/>
</g>
<g fill="None" fill-opacity="0.0" stroke="#D5EAF3" stroke-opacity="1.00" stroke-width="0.3"><path d="
M 352.00 521.00 
C 352.00 521.00 352.50 521.00 353.00 521.00
C 353.65 513.78 350.75 503.84 353.00 497.00
C 350.32 502.30 351.42 514.59 352.00 521.00 Z"/>
</g>
<g fill="None" fill-opacity="0.0" stroke="#BBBCCF" stroke-opacity="1.00" stroke-width="0.3"><path d="
M 237.00 512.00 
C 241.87 509.23 243.73 504.80 242.00 500.00
C 242.71 504.02 240.43 509.69 237.00 512.00 Z"/>
</g>
<g fill="None" fill-opacity="0.0" stroke="#DDD4CC" stroke-opacity="1.00" stroke-width="0.3"><path d="
M 195.00 504.00 
C 190.19 505.38 190.08 513.90 197.00 511.00
C 197.07 508.41 194.37 506.72 195.00 504.00 Z"/>
</g>
<g fill="None" fill-opacity="0.0" stroke="#DDD4CC" stroke-opacity="1.00" stroke-width="0.3"><path d="
M 321.00 511.00 
C 320.03 508.71 319.71 504.31 317.00 504.00
C 315.04 508.41 314.40 512.71 321.00 511.00 Z"/>
</g>
<g fill="None" fill-opacity="0.0" stroke="#ADA0AF" stroke-opacity="1.00" stroke-width="0.3"><path d="
M 365.00 526.00 
C 366.58 524.90 366.89 517.01 365.00 516.00
C 365.00 519.33 365.00 522.67 365.00 526.00 Z"/>
</g>
<g fill="#FAF7F5" fill-opacity="1.00" stroke="None">
<path d="
M 0.00 573.00 
L 583.00 573.00
L 583.00 0.00
L 0.00 0.00
L 0.00 573.00
M 424.00 91.00 
C 417.88 97.63 409.50 102.49 404.00 110.00
C 392.31 102.94 382.84 96.94 369.78 92.22 C 356.72 87.51 343.11 83.16 328.78 81.22 C 314.45 79.29 293.35 79.49 279.00 81.00 C 264.65 82.51 250.67 87.30 237.78 91.78 C 224.89 96.25 214.40 102.31 203.30 109.30 C 192.21 116.30 184.18 123.44 174.75 132.75 C 165.32 142.07 158.19 150.15 151.23 161.23 C 144.27 172.31 137.76 182.32 133.22 195.22 C 128.69 208.13 123.98 221.90 122.22 236.22 C 120.46 250.55 120.20 272.67 122.00 287.00 C 123.80 301.33 128.44 315.18 132.93 328.07 C 137.42 340.97 143.87 351.12 150.77 362.23 C 157.67 373.34 164.91 381.38 174.25 390.75 C 183.58 400.12 191.71 407.27 202.75 414.25 C 213.78 421.24 224.24 427.51 237.07 431.93 C 249.91 436.34 263.81 441.56 278.07 442.93 C 292.34 444.29 313.74 445.40 328.00 443.00 C 342.26 440.60 356.13 437.83 369.07 432.07 C 382.02 426.32 391.99 424.07 403.25 414.25 C 414.50 404.42 423.43 416.17 434.00 424.00
C 353.61 493.80 227.24 483.50 153.25 407.75 C 79.26 332.01 74.46 206.36 143.92 125.92 C 213.38 45.48 338.32 28.46 424.00 91.00
M 399.00 115.00 
C 393.38 121.90 387.43 128.43 383.00 136.00
C 322.67 97.94 239.14 111.58 192.75 166.75 C 146.36 221.93 148.65 306.70 197.25 359.75 C 245.85 412.79 330.72 421.96 389.00 381.00
C 394.07 388.41 401.76 394.35 406.00 402.00
C 337.18 451.63 236.70 441.40 178.25 378.75 C 119.80 316.10 117.27 215.64 171.92 149.92 C 226.56 84.19 327.74 67.15 399.00 115.00
M 286.00 226.00 
C 268.78 219.07 245.00 227.03 226.00 224.00
C 226.00 231.67 226.00 239.33 226.00 247.00
C 232.69 245.49 238.82 241.84 246.00 242.00
C 251.17 241.16 256.89 241.17 262.00 242.00
C 274.75 242.69 287.20 250.53 291.92 263.08 C 296.65 275.62 293.81 291.59 282.75 300.75 C 271.70 309.92 256.87 311.10 242.78 310.22 C 228.69 309.34 218.15 298.77 205.00 299.00
C 207.14 292.74 212.11 286.68 217.00 282.00
C 226.78 301.41 268.73 309.31 278.93 281.93 C 289.12 254.54 236.37 239.83 227.00 266.00
C 219.05 264.41 214.58 255.46 208.00 251.00
C 214.79 248.11 211.59 237.74 212.00 231.00 C 212.41 224.26 213.56 214.31 208.00 211.00
C 220.97 210.52 235.15 211.64 248.00 211.00 C 260.85 210.36 274.87 213.13 286.00 209.00
C 286.19 208.92 287.02 205.37 289.00 207.00
C 287.76 211.95 291.92 228.94 286.00 226.00
M 325.00 306.00 
C 326.33 306.99 328.57 307.05 329.00 309.00
C 321.16 311.26 312.25 309.38 304.00 310.00
C 303.29 307.79 304.90 306.54 307.00 307.00
C 321.95 292.53 332.88 273.05 347.00 258.00
C 335.58 242.56 324.86 224.17 310.00 212.00
C 317.76 209.69 327.49 211.65 336.00 211.00
C 328.02 215.56 338.34 222.04 342.25 227.75 C 346.16 233.47 350.99 240.19 355.00 246.00
C 361.03 242.54 365.49 234.36 369.92 228.92 C 374.34 223.47 384.33 216.02 378.00 211.00
C 385.86 212.27 397.56 208.41 403.00 213.00
C 395.05 215.60 386.30 227.50 381.75 234.75 C 377.21 242.00 361.89 251.14 365.76 259.25 C 369.62 267.35 379.29 276.48 384.75 284.25 C 390.21 292.01 396.85 304.24 406.00 307.00
C 400.24 311.56 388.18 307.74 380.00 309.00
C 386.94 302.68 374.53 295.43 370.25 288.75 C 365.97 282.08 359.26 274.88 355.00 268.00
C 344.46 279.99 333.82 292.89 325.00 306.00
M 414.00 483.00 
C 415.47 485.45 412.89 490.33 414.00 493.00
C 406.21 488.64 395.84 492.12 387.00 491.00
C 387.56 493.52 385.81 497.30 388.00 499.00
C 399.53 491.58 422.44 501.72 416.02 517.02 C 409.60 532.33 389.07 527.18 378.00 522.00
C 379.69 519.29 381.72 516.92 383.00 514.00
C 386.41 521.67 402.88 527.09 408.75 516.75 C 414.62 506.42 393.09 496.59 389.00 508.00
C 384.41 508.46 382.70 502.63 379.00 501.00
C 381.24 496.87 382.17 490.20 380.00 486.00
C 380.32 483.30 392.08 483.09 396.00 484.00 C 399.92 484.91 413.54 482.24 414.00 483.00
M 444.00 497.00 
C 448.16 499.72 451.84 490.64 455.00 487.00
C 455.26 486.53 453.16 484.79 454.00 484.00
C 456.94 484.79 466.81 482.09 465.00 486.00
C 463.31 491.94 447.50 498.94 450.78 506.22 C 454.06 513.51 462.96 519.94 467.00 527.00
C 463.33 527.00 459.67 527.00 456.00 527.00
C 456.63 521.03 448.59 515.85 446.00 510.00
C 441.60 514.65 434.83 521.07 435.00 527.00
C 431.33 527.00 427.67 527.00 424.00 527.00
C 428.36 520.40 436.83 513.94 439.77 506.77 C 442.71 499.60 430.31 491.32 426.00 486.00
C 424.85 481.96 433.59 484.91 437.00 484.00
C 436.72 488.83 441.52 492.61 444.00 497.00
M 194.00 492.00 
C 199.70 492.87 200.26 504.30 202.93 509.07 C 205.59 513.85 208.21 522.58 212.00 526.00
C 207.33 526.00 202.67 526.00 198.00 526.00
C 199.23 521.74 202.21 519.77 199.00 515.00
C 189.60 512.38 185.22 520.20 190.00 526.00
C 186.33 526.00 182.67 526.00 179.00 526.00
C 178.54 523.72 179.11 521.24 182.00 522.00
C 184.28 518.08 185.31 509.42 187.78 505.78 C 190.25 502.13 190.09 491.40 194.00 492.00
M 318.00 492.00 
C 323.70 492.87 324.26 504.30 326.93 509.07 C 329.59 513.85 332.21 522.58 336.00 526.00
C 331.33 526.00 326.67 526.00 322.00 526.00
C 323.23 521.74 326.21 519.77 323.00 515.00
C 313.60 512.38 309.22 520.20 314.00 526.00
C 310.33 526.00 306.67 526.00 303.00 526.00
C 302.54 523.72 303.11 521.24 306.00 522.00
C 308.28 518.08 309.31 509.42 311.78 505.78 C 314.25 502.13 314.09 491.40 318.00 492.00
M 172.00 493.00 
C 174.32 494.58 175.19 501.83 172.00 503.00
C 167.62 504.61 167.67 499.95 168.00 497.00
C 165.00 497.00 162.00 497.00 159.00 497.00
C 152.81 499.52 152.87 513.30 155.00 518.00
C 157.39 521.70 163.31 524.98 168.07 521.07 C 172.84 517.17 173.79 523.63 168.75 525.75 C 163.71 527.87 157.56 527.43 153.00 525.00
C 141.48 518.85 142.51 497.39 155.00 493.00
C 158.80 491.67 168.44 490.58 172.00 493.00
M 261.00 497.00 
C 258.66 504.12 261.68 514.48 261.00 522.00
C 263.11 522.68 263.24 523.49 263.00 526.00
C 258.37 526.48 253.20 524.92 249.00 527.00
C 248.63 524.88 249.12 521.61 252.00 522.00
C 253.92 516.16 252.87 503.13 252.00 497.00
C 251.64 495.75 248.81 495.25 250.00 493.00
C 254.33 493.00 258.67 493.00 263.00 493.00
C 266.36 494.23 261.72 495.58 261.00 497.00
M 270.00 493.00 
C 278.01 489.75 289.66 495.44 298.00 493.00
C 298.00 496.33 298.00 499.67 298.00 503.00
C 293.95 504.33 293.11 500.02 293.00 497.00
C 291.33 497.00 289.67 497.00 288.00 497.00
C 289.77 504.78 285.64 514.40 288.00 522.00
C 288.29 522.59 293.03 523.28 291.00 526.00
C 286.33 526.00 281.67 526.00 277.00 526.00
C 276.24 523.65 278.25 522.73 280.00 522.00
C 282.31 514.36 278.27 504.81 280.00 497.00
C 278.81 496.25 276.31 497.57 275.00 497.00
C 275.35 499.83 273.16 505.47 270.00 502.00
C 267.74 499.74 269.11 493.36 270.00 493.00
M 353.00 497.00 
C 350.75 503.84 353.65 513.78 353.00 521.00
C 355.67 521.00 358.33 521.00 361.00 521.00
C 361.64 518.84 361.59 515.12 365.00 516.00
C 366.89 517.01 366.58 524.90 365.00 526.00
C 363.21 527.25 356.43 526.13 354.00 526.00 C 351.58 525.87 344.07 527.29 342.00 526.00
C 339.91 524.70 345.44 518.31 344.00 514.00 C 342.56 509.69 344.67 501.71 344.00 497.00
C 343.64 495.76 340.81 495.25 342.00 493.00
C 346.33 493.00 350.67 493.00 355.00 493.00
C 358.36 494.23 353.72 495.58 353.00 497.00
M 242.00 500.00 
C 243.73 504.80 241.87 509.23 237.00 512.00
C 234.15 513.62 230.42 514.21 227.00 514.00
C 224.44 521.02 230.93 520.84 231.00 526.00
C 226.04 526.51 220.53 524.89 216.00 527.00
C 215.63 524.88 216.12 521.61 219.00 522.00
C 220.92 516.16 219.87 503.13 219.00 497.00
C 218.64 495.75 215.81 495.25 217.00 493.00
C 225.55 493.90 238.40 489.44 242.00 500.00 Z"/>
</g>
<g fill="#303A46" fill-opacity="1.00" stroke="None">
<path d="
M 424.00 91.00 
C 338.32 28.46 213.38 45.48 143.92 125.92 C 74.46 206.36 79.26 332.01 153.25 407.75 C 227.24 483.50 353.61 493.80 434.00 424.00
C 423.43 416.17 414.50 404.42 403.25 414.25 C 391.99 424.07 382.02 426.32 369.07 432.07 C 356.13 437.83 342.26 440.60 328.00 443.00 C 313.74 445.40 292.34 444.29 278.07 442.93 C 263.81 441.56 249.91 436.34 237.07 431.93 C 224.24 427.51 213.78 421.24 202.75 414.25 C 191.71 407.27 183.58 400.12 174.25 390.75 C 164.91 381.38 157.67 373.34 150.77 362.23 C 143.87 351.12 137.42 340.97 132.93 328.07 C 128.44 315.18 123.80 301.33 122.00 287.00 C 120.20 272.67 120.46 250.55 122.22 236.22 C 123.98 221.90 128.69 208.13 133.22 195.22 C 137.76 182.32 144.27 172.31 151.23 161.23 C 158.19 150.15 165.32 142.07 174.75 132.75 C 184.18 123.44 192.21 116.30 203.30 109.30 C 214.40 102.31 224.89 96.25 237.78 91.78 C 250.67 87.30 264.65 82.51 279.00 81.00 C 293.35 79.49 314.45 79.29 328.78 81.22 C 343.11 83.16 356.72 87.51 369.78 92.22 C 382.84 96.94 392.31 102.94 404.00 110.00
C 409.50 102.49 417.88 97.63 424.00 91.00 Z"/>
</g>
<g fill="#AA8D74" fill-opacity="1.00" stroke="None">
<path d="
M 399.00 115.00 
C 327.74 67.15 226.56 84.19 171.92 149.92 C 117.27 215.64 119.80 316.10 178.25 378.75 C 236.70 441.40 337.18 451.63 406.00 402.00
C 401.76 394.35 394.07 388.41 389.00 381.00
C 330.72 421.96 245.85 412.79 197.25 359.75 C 148.65 306.70 146.36 221.93 192.75 166.75 C 239.14 111.58 322.67 97.94 383.00 136.00
C 387.43 128.43 393.38 121.90 399.00 115.00 Z"/>
</g>
<g fill="#BCB4AE" fill-opacity="1.00" stroke="None">
<path d="
M 286.00 209.00 
C 289.28 208.94 289.36 226.07 286.00 226.00
C 291.92 228.94 287.76 211.95 289.00 207.00
C 287.02 205.37 286.19 208.92 286.00 209.00 Z"/>
</g>
<g fill="#AA8F77" fill-opacity="1.00" stroke="None">
<path d="
M 286.00 209.00 
C 274.87 213.13 260.85 210.36 248.00 211.00 C 235.15 211.64 220.97 210.52 208.00 211.00
C 213.56 214.31 212.41 224.26 212.00 231.00 C 211.59 237.74 214.79 248.11 208.00 251.00
C 214.58 255.46 219.05 264.41 227.00 266.00
C 236.37 239.83 289.12 254.54 278.93 281.93 C 268.73 309.31 226.78 301.41 217.00 282.00
C 212.11 286.68 207.14 292.74 205.00 299.00
C 218.15 298.77 228.69 309.34 242.78 310.22 C 256.87 311.10 271.70 309.92 282.75 300.75 C 293.81 291.59 296.65 275.62 291.92 263.08 C 287.20 250.53 274.75 242.69 262.00 242.00
C 256.77 241.72 251.23 241.72 246.00 242.00
C 238.82 241.84 232.69 245.49 226.00 247.00
C 226.00 239.33 226.00 231.67 226.00 224.00
C 245.00 227.03 268.78 219.07 286.00 226.00
C 289.36 226.07 289.28 208.94 286.00 209.00 Z"/>
</g>
<g fill="#AA8E76" fill-opacity="1.00" stroke="None">
<path d="
M 307.00 307.00 
C 306.42 307.96 305.31 307.79 305.00 309.00
C 312.67 309.00 320.33 309.00 328.00 309.00
C 327.44 307.73 325.15 307.75 325.00 306.00
C 333.82 292.89 344.46 279.99 355.00 268.00
C 359.26 274.88 365.97 282.08 370.25 288.75 C 374.53 295.43 386.94 302.68 380.00 309.00
C 388.18 307.74 400.24 311.56 406.00 307.00
C 396.85 304.24 390.21 292.01 384.75 284.25 C 379.29 276.48 369.62 267.35 365.76 259.25 C 361.89 251.14 377.21 242.00 381.75 234.75 C 386.30 227.50 395.05 215.60 403.00 213.00
C 397.56 208.41 385.86 212.27 378.00 211.00
C 384.33 216.02 374.34 223.47 369.92 228.92 C 365.49 234.36 361.03 242.54 355.00 246.00
C 350.99 240.19 346.16 233.47 342.25 227.75 C 338.34 222.04 328.02 215.56 336.00 211.00
C 327.49 211.65 317.76 209.69 310.00 212.00
C 324.86 224.17 335.58 242.56 347.00 258.00
C 332.88 273.05 321.95 292.53 307.00 307.00 Z"/>
</g>
<g fill="#C3BBB3" fill-opacity="1.00" stroke="None">
<path d="
M 246.00 242.00 
C 251.23 241.72 256.77 241.72 262.00 242.00
C 256.89 241.17 251.17 241.16 246.00 242.00 Z"/>
</g>
<g fill="#C4BDB8" fill-opacity="1.00" stroke="None">
<path d="
M 307.00 307.00 
C 304.90 306.54 303.29 307.79 304.00 310.00
C 312.25 309.38 321.16 311.26 329.00 309.00
C 328.57 307.05 326.33 306.99 325.00 306.00
C 325.15 307.75 327.44 307.73 328.00 309.00
C 320.33 309.00 312.67 309.00 305.00 309.00
C 305.31 307.79 306.42 307.96 307.00 307.00 Z"/>
</g>
<g fill="#C1BAB4" fill-opacity="1.00" stroke="None">
<path d="
M 380.00 486.00 
C 390.25 482.49 404.09 488.13 414.00 483.00
C 413.54 482.24 399.92 484.91 396.00 484.00 C 392.08 483.09 380.32 483.30 380.00 486.00 Z"/>
</g>
<g fill="#AC917B" fill-opacity="1.00" stroke="None">
<path d="
M 380.00 486.00 
C 382.17 490.20 381.24 496.87 379.00 501.00
C 382.70 502.63 384.41 508.46 389.00 508.00
C 393.09 496.59 414.62 506.42 408.75 516.75 C 402.88 527.09 386.41 521.67 383.00 514.00
C 381.72 516.92 379.69 519.29 378.00 522.00
C 389.07 527.18 409.60 532.33 416.02 517.02 C 422.44 501.72 399.53 491.58 388.00 499.00
C 385.81 497.30 387.56 493.52 387.00 491.00
C 395.84 492.12 406.21 488.64 414.00 493.00
C 412.89 490.33 415.47 485.45 414.00 483.00
C 404.09 488.13 390.25 482.49 380.00 486.00 Z"/>
</g>
<g fill="#C5BDB7" fill-opacity="1.00" stroke="None">
<path d="
M 426.00 486.00 
C 428.76 483.84 433.49 485.55 437.00 485.00
C 435.30 489.36 441.12 493.94 444.00 497.00
C 441.52 492.61 436.72 488.83 437.00 484.00
C 433.59 484.91 424.85 481.96 426.00 486.00 Z"/>
</g>
<g fill="#C4BDB6" fill-opacity="1.00" stroke="None">
<path d="
M 455.00 487.00 
C 456.54 485.22 461.55 483.38 465.00 486.00
C 466.81 482.09 456.94 484.79 454.00 484.00
C 453.16 484.79 455.26 486.53 455.00 487.00 Z"/>
</g>
<g fill="#AA8F79" fill-opacity="1.00" stroke="None">
<path d="
M 426.00 486.00 
C 430.31 491.32 442.71 499.60 439.77 506.77 C 436.83 513.94 428.36 520.40 424.00 527.00
C 427.67 527.00 431.33 527.00 435.00 527.00
C 434.83 521.07 441.60 514.65 446.00 510.00
C 448.59 515.85 456.63 521.03 456.00 527.00
C 459.67 527.00 463.33 527.00 467.00 527.00
C 462.96 519.94 454.06 513.51 450.78 506.22 C 447.50 498.94 463.31 491.94 465.00 486.00
C 461.55 483.38 456.54 485.22 455.00 487.00
C 451.84 490.64 448.16 499.72 444.00 497.00
C 441.12 493.94 435.30 489.36 437.00 485.00
C 433.49 485.55 428.76 483.84 426.00 486.00 Z"/>
</g>
<g fill="#EDCFA4" fill-opacity="1.00" stroke="None">
<path d="
M 182.00 522.00 
C 184.63 518.56 185.94 510.32 187.98 506.98 C 190.01 503.63 190.85 492.95 194.00 492.00
C 190.09 491.40 190.25 502.13 187.78 505.78 C 185.31 509.42 184.28 518.08 182.00 522.00 Z"/>
</g>
<g fill="#EDCFA4" fill-opacity="1.00" stroke="None">
<path d="
M 306.00 522.00 
C 308.63 518.56 309.94 510.32 311.98 506.98 C 314.01 503.63 314.85 492.95 318.00 492.00
C 314.09 491.40 314.25 502.13 311.78 505.78 C 309.31 509.42 308.28 518.08 306.00 522.00 Z"/>
</g>
<g fill="#AC8F77" fill-opacity="1.00" stroke="None">
<path d="
M 155.00 493.00 
C 144.20 497.94 142.76 518.53 153.00 525.00
C 157.56 527.43 163.71 527.87 168.75 525.75 C 173.79 523.63 172.84 517.17 168.07 521.07 C 163.31 524.98 157.39 521.70 155.00 518.00
C 151.89 513.18 151.24 499.32 159.00 497.00
C 162.00 497.00 165.00 497.00 168.00 497.00
C 167.67 499.95 167.62 504.61 172.00 503.00
C 173.48 502.06 173.36 494.29 172.00 493.00
C 168.44 490.58 158.80 491.67 155.00 493.00 Z"/>
</g>
<g fill="#AB8E75" fill-opacity="1.00" stroke="None">
<path d="
M 182.00 522.00 
C 179.11 521.24 178.54 523.72 179.00 526.00
C 182.67 526.00 186.33 526.00 190.00 526.00
C 185.22 520.20 189.60 512.38 199.00 515.00
C 202.21 519.77 199.23 521.74 198.00 526.00
C 202.67 526.00 207.33 526.00 212.00 526.00
C 208.21 522.58 205.59 513.85 202.93 509.07 C 200.26 504.30 199.70 492.87 194.00 492.00
C 190.85 492.95 190.01 503.63 187.98 506.98 C 185.94 510.32 184.63 518.56 182.00 522.00
M 195.00 504.00 
C 194.37 506.72 197.07 508.41 197.00 511.00
C 190.08 513.90 190.19 505.38 195.00 504.00 Z"/>
</g>
<g fill="#AD979D" fill-opacity="1.00" stroke="None">
<path d="
M 263.00 493.00 
C 264.03 496.14 260.79 495.86 259.00 497.00
C 259.66 505.17 257.67 514.66 260.00 522.00
C 259.40 515.37 258.22 502.49 261.00 497.00
C 261.72 495.58 266.36 494.23 263.00 493.00 Z"/>
</g>
<g fill="#F9EBC6" fill-opacity="1.00" stroke="None">
<path d="
M 270.00 502.00 
C 268.69 499.93 270.77 495.37 270.00 493.00
C 269.11 493.36 267.74 499.74 270.00 502.00 Z"/>
</g>
<g fill="#AB8E75" fill-opacity="1.00" stroke="None">
<path d="
M 306.00 522.00 
C 303.11 521.24 302.54 523.72 303.00 526.00
C 306.67 526.00 310.33 526.00 314.00 526.00
C 309.22 520.20 313.60 512.38 323.00 515.00
C 326.21 519.77 323.23 521.74 322.00 526.00
C 326.67 526.00 331.33 526.00 336.00 526.00
C 332.21 522.58 329.59 513.85 326.93 509.07 C 324.26 504.30 323.70 492.87 318.00 492.00
C 314.85 492.95 314.01 503.63 311.98 506.98 C 309.94 510.32 308.63 518.56 306.00 522.00
M 321.00 511.00 
C 314.40 512.71 315.04 508.41 317.00 504.00
C 319.71 504.31 320.03 508.71 321.00 511.00 Z"/>
</g>
<g fill="#AD989E" fill-opacity="1.00" stroke="None">
<path d="
M 355.00 493.00 
C 356.03 496.14 352.79 495.86 351.00 497.00
C 351.66 504.83 349.67 513.99 352.00 521.00
C 351.42 514.59 350.32 502.30 353.00 497.00
C 353.72 495.58 358.36 494.23 355.00 493.00 Z"/>
</g>
<g fill="#EED4AB" fill-opacity="1.00" stroke="None">
<path d="
M 153.00 525.00 
C 142.76 518.53 144.20 497.94 155.00 493.00
C 142.51 497.39 141.48 518.85 153.00 525.00 Z"/>
</g>
<g fill="#B7B8CD" fill-opacity="1.00" stroke="None">
<path d="
M 172.00 503.00 
C 175.19 501.83 174.32 494.58 172.00 493.00
C 173.36 494.29 173.48 502.06 172.00 503.00 Z"/>
</g>
<g fill="#AE9178" fill-opacity="1.00" stroke="None">
<path d="
M 219.00 497.00 
C 220.66 502.76 221.78 516.50 219.00 522.00
C 216.12 521.61 215.63 524.88 216.00 527.00
C 220.53 524.89 226.04 526.51 231.00 526.00
C 230.93 520.84 224.44 521.02 227.00 514.00
C 230.42 514.21 234.15 513.62 237.00 512.00
C 240.43 509.69 242.71 504.02 242.00 500.00
C 238.40 489.44 225.55 493.90 217.00 493.00
C 215.81 495.25 218.64 495.75 219.00 497.00
M 227.00 509.00 
C 225.16 507.79 225.22 498.17 227.00 497.00
C 236.78 490.56 236.77 515.44 227.00 509.00 Z"/>
</g>
<g fill="#AE9075" fill-opacity="1.00" stroke="None">
<path d="
M 252.00 497.00 
C 253.66 502.76 254.78 516.50 252.00 522.00
C 249.12 521.61 248.63 524.88 249.00 527.00
C 253.20 524.92 258.37 526.48 263.00 526.00
C 263.24 523.49 263.11 522.68 261.00 522.00
C 260.55 521.85 260.00 522.00 260.00 522.00
C 257.67 514.66 259.66 505.17 259.00 497.00
C 260.79 495.86 264.03 496.14 263.00 493.00
C 258.67 493.00 254.33 493.00 250.00 493.00
C 248.81 495.25 251.64 495.75 252.00 497.00 Z"/>
</g>
<g fill="#AA8E76" fill-opacity="1.00" stroke="None">
<path d="
M 270.00 502.00 
C 273.16 505.47 275.35 499.83 275.00 497.00
C 276.31 497.57 278.81 496.25 280.00 497.00
C 282.75 498.74 280.51 505.66 281.00 509.00 C 281.49 512.34 281.33 519.22 280.00 522.00
C 278.25 522.73 276.24 523.65 277.00 526.00
C 281.67 526.00 286.33 526.00 291.00 526.00
C 293.03 523.28 288.29 522.59 288.00 522.00
C 286.70 519.36 286.38 513.22 287.00 510.00 C 287.62 506.78 285.18 498.79 288.00 497.00
C 289.67 497.00 291.33 497.00 293.00 497.00
C 293.11 500.02 293.95 504.33 298.00 503.00
C 298.00 499.67 298.00 496.33 298.00 493.00
C 289.66 495.44 278.01 489.75 270.00 493.00
C 270.77 495.37 268.69 499.93 270.00 502.00 Z"/>
</g>
<g fill="#AC8F75" fill-opacity="1.00" stroke="None">
<path d="
M 344.00 497.00 
C 346.46 505.55 345.98 518.82 342.00 526.00
C 344.07 527.29 351.58 525.87 354.00 526.00 C 356.43 526.13 363.21 527.25 365.00 526.00
C 365.00 522.67 365.00 519.33 365.00 516.00
C 361.59 515.12 361.64 518.84 361.00 521.00
C 358.33 521.00 355.67 521.00 353.00 521.00
C 352.50 521.00 352.00 521.00 352.00 521.00
C 349.67 513.99 351.66 504.83 351.00 497.00
C 352.79 495.86 356.03 496.14 355.00 493.00
C 350.67 493.00 346.33 493.00 342.00 493.00
C 340.81 495.25 343.64 495.76 344.00 497.00 Z"/>
</g>
<g fill="#B7B7CC" fill-opacity="1.00" stroke="None">
<path d="
M 155.00 518.00 
C 152.87 513.30 152.81 499.52 159.00 497.00
C 151.24 499.32 151.89 513.18 155.00 518.00 Z"/>
</g>
<g fill="#FAF2D1" fill-opacity="1.00" stroke="None">
<path d="
M 219.00 522.00 
C 221.78 516.50 220.66 502.76 219.00 497.00
C 219.87 503.13 220.92 516.16 219.00 522.00 Z"/>
</g>
<g fill="#A98F94" fill-opacity="1.00" stroke="None">
<path d="
M 227.00 509.00 
C 227.00 505.00 227.00 501.00 227.00 497.00
C 225.22 498.17 225.16 507.79 227.00 509.00 Z"/>
</g>
<g fill="#F4F4F3" fill-opacity="1.00" stroke="None">
<path d="
M 227.00 509.00 
C 236.77 515.44 236.78 490.56 227.00 497.00
C 227.00 501.00 227.00 505.00 227.00 509.00 Z"/>
</g>
<g fill="#FAF2D1" fill-opacity="1.00" stroke="None">
<path d="
M 252.00 522.00 
C 254.78 516.50 253.66 502.76 252.00 497.00
C 252.87 503.13 253.92 516.16 252.00 522.00 Z"/>
</g>
<g fill="#D4E9F3" fill-opacity="1.00" stroke="None">
<path d="
M 260.00 522.00 
C 260.00 522.00 260.55 521.85 261.00 522.00
C 261.68 514.48 258.66 504.12 261.00 497.00
C 258.22 502.49 259.40 515.37 260.00 522.00 Z"/>
</g>
<g fill="#DAAF7B" fill-opacity="1.00" stroke="None">
<path d="
M 280.00 522.00 
C 281.33 519.22 281.49 512.34 281.00 509.00 C 280.51 505.66 282.75 498.74 280.00 497.00
C 278.27 504.81 282.31 514.36 280.00 522.00 Z"/>
</g>
<g fill="#C2CFED" fill-opacity="1.00" stroke="None">
<path d="
M 288.00 522.00 
C 285.64 514.40 289.77 504.78 288.00 497.00
C 285.18 498.79 287.62 506.78 287.00 510.00 C 286.38 513.22 286.70 519.36 288.00 522.00 Z"/>
</g>
<g fill="#F6EAC8" fill-opacity="1.00" stroke="None">
<path d="
M 342.00 526.00 
C 345.98 518.82 346.46 505.55 344.00 497.00
C 344.67 501.71 342.56 509.69 344.00 514.00 C 345.44 518.31 339.91 524.70 342.00 526.00 Z"/>
</g>
<g fill="#D5EAF3" fill-opacity="1.00" stroke="None">
<path d="
M 352.00 521.00 
C 352.00 521.00 352.50 521.00 353.00 521.00
C 353.65 513.78 350.75 503.84 353.00 497.00
C 350.32 502.30 351.42 514.59 352.00 521.00 Z"/>
</g>
<g fill="#BBBCCF" fill-opacity="1.00" stroke="None">
<path d="
M 237.00 512.00 
C 241.87 509.23 243.73 504.80 242.00 500.00
C 242.71 504.02 240.43 509.69 237.00 512.00 Z"/>
</g>
<g fill="#DDD4CC" fill-opacity="1.00" stroke="None">
<path d="
M 195.00 504.00 
C 190.19 505.38 190.08 513.90 197.00 511.00
C 197.07 508.41 194.37 506.72 195.00 504.00 Z"/>
</g>
<g fill="#DDD4CC" fill-opacity="1.00" stroke="None">
<path d="
M 321.00 511.00 
C 320.03 508.71 319.71 504.31 317.00 504.00
C 315.04 508.41 314.40 512.71 321.00 511.00 Z"/>
</g>
<g fill="#ADA0AF" fill-opacity="1.00" stroke="None">
<path d="
M 365.00 526.00 
C 366.58 524.90 366.89 517.01 365.00 516.00
C 365.00 519.33 365.00 522.67 365.00 526.00 Z"/>
</g>
</svg>